<svg version="1.1" id="Layer_1" xmlns="http://www.w3.org/2000/svg" xmlns:xlink="http://www.w3.org/1999/xlink" x="0px" y="0px"
	 width="100%" viewBox="0 0 400 400" enable-background="new 0 0 400 400" xml:space="preserve">
<path fill="#000000" opacity="1.000000" stroke="none" 
	d="
M266.000000,401.000000 
	C177.360886,401.000000 89.221764,401.000000 1.041321,401.000000 
	C1.041321,267.735870 1.041321,134.471756 1.041321,1.103811 
	C134.222397,1.103811 267.444885,1.103811 400.833679,1.103811 
	C400.833679,134.333160 400.833679,267.666565 400.833679,401.000000 
	C356.138489,401.000000 311.319244,401.000000 266.000000,401.000000 
M228.043625,117.031982 
	C228.043625,117.031982 228.056931,117.097229 228.720016,117.044167 
	C229.146973,116.964531 229.573929,116.884895 230.743896,116.843681 
	C233.546921,115.539619 236.349945,114.235565 239.990097,112.542046 
	C238.016586,110.970497 236.937119,110.110893 235.226959,108.864792 
	C233.339935,105.531502 232.925278,100.851715 227.659805,100.576279 
	C227.568497,100.571503 227.508194,99.973885 227.376450,99.724220 
	C227.376450,99.724220 227.449661,99.778389 227.716354,99.165375 
	C226.493866,97.744385 225.271378,96.323402 223.849091,94.218140 
	C221.345184,93.333969 218.677124,91.392784 216.366272,91.751671 
	C207.188232,93.177063 198.121765,95.320808 188.237686,97.173050 
	C186.153091,97.827652 184.068512,98.482262 181.145996,99.000542 
	C174.052795,99.235344 167.670532,101.417084 161.611023,106.454025 
	C160.324646,107.578346 159.186646,108.983337 157.716705,109.760475 
	C155.572006,110.894363 153.188736,111.576996 150.212814,112.712585 
	C146.999298,114.696617 143.785782,116.680656 139.904221,118.809196 
	C133.113739,125.020836 125.876183,130.819656 119.655106,137.557083 
	C113.079254,144.678726 104.677246,150.647522 105.434738,162.739639 
	C105.743538,167.669098 101.268806,172.898239 98.538536,178.193146 
	C98.270622,178.385513 98.084366,178.638092 97.255615,179.087891 
	C95.243401,180.031799 93.265945,181.061295 91.209633,181.896667 
	C88.950417,182.814453 86.057312,182.957047 84.429665,184.488678 
	C80.457741,188.226288 77.180840,192.690186 73.384323,196.630646 
	C70.713959,199.402222 70.585823,201.741028 71.948326,205.498291 
	C73.796127,210.593811 76.923500,214.327530 80.843590,217.512711 
	C83.955345,220.041092 87.594513,221.920410 91.345268,224.454010 
	C91.513031,224.459396 91.680801,224.464767 92.402977,224.911743 
	C92.865128,224.831177 93.327286,224.750595 94.456146,224.956741 
	C97.898071,225.573807 100.093338,223.613602 102.632149,220.991898 
	C103.108963,220.371796 103.585777,219.751694 104.681641,218.874374 
	C106.154152,216.972305 107.626663,215.070236 109.684769,212.823135 
	C110.482285,211.583694 111.253418,210.326340 112.081757,209.107864 
	C116.305122,202.895370 116.518799,194.103317 124.948822,190.074005 
	C127.277863,188.376587 129.606903,186.679153 132.476151,184.615143 
	C133.650787,184.073837 134.825424,183.532532 136.829102,182.975479 
	C144.666138,179.820297 152.686569,182.191116 160.836136,182.878143 
	C165.864395,184.691101 170.892654,186.504044 176.107147,188.946732 
	C177.315247,190.041245 178.404892,191.315720 179.750381,192.201538 
	C189.688583,198.744431 199.636230,205.274979 209.665588,211.676712 
	C216.301178,215.912201 223.077042,219.927948 229.928757,224.724335 
	C231.947235,226.173218 233.965714,227.622116 236.003159,229.785400 
	C236.837357,231.184692 237.364975,232.964767 238.554626,233.922577 
	C247.476562,241.105698 256.189148,248.625336 265.633087,255.062836 
	C275.777802,261.978027 286.823700,267.558197 297.132660,274.250366 
	C302.943604,278.022644 308.495392,282.433014 313.361755,287.349854 
	C317.642609,291.675110 321.832275,293.473969 327.292969,290.513702 
	C330.329285,288.867706 333.180664,286.691010 335.698364,284.312103 
	C344.660675,275.843964 345.652405,262.112671 332.243225,256.299683 
	C326.216370,253.686966 320.774170,249.627335 315.276489,245.913651 
	C305.490662,239.303238 296.166138,231.958099 286.082550,225.855621 
	C276.876312,220.284134 267.005951,215.768448 257.237183,211.195724 
	C254.646317,209.982925 251.351700,210.273529 247.892380,209.440582 
	C247.269241,209.285583 246.646088,209.130585 245.607193,208.451096 
	C232.196579,199.462479 218.753036,190.522461 205.387604,181.467178 
	C197.257446,175.958878 188.937531,170.659424 181.295639,164.527390 
	C176.395996,160.595840 172.591995,155.303894 168.244675,150.670715 
	C167.845322,150.245102 167.066620,150.175385 166.397644,149.222717 
	C168.924835,145.526016 171.452042,141.829315 174.567398,138.067261 
	C174.702972,137.709473 174.838547,137.351669 175.526947,136.593155 
	C182.443054,132.831482 189.359161,129.069809 196.145691,125.131485 
	C196.145691,125.131485 196.315094,125.270546 197.060745,125.142189 
	C207.045959,122.691841 217.031158,120.241486 227.530884,117.873604 
	C227.723724,117.596527 227.916550,117.319443 228.043625,117.031982 
z"/>
<path fill="#9A9A9A" opacity="1.000000" stroke="none" 
	d="
M98.970428,177.991043 
	C101.268806,172.898239 105.743538,167.669098 105.434738,162.739639 
	C104.677246,150.647522 113.079254,144.678726 119.655106,137.557083 
	C125.876183,130.819656 133.113739,125.020836 140.493927,119.009354 
	C146.271881,122.462120 148.832214,126.779274 147.317780,133.148972 
	C147.003571,134.470520 148.108490,136.129471 148.653046,138.015335 
	C149.282669,139.430817 149.818604,140.463882 150.354553,141.496933 
	C150.876175,141.087738 151.397812,140.678558 151.919434,140.269363 
	C150.847321,139.349060 149.775223,138.428741 148.677231,137.159958 
	C150.707916,135.434357 152.764481,134.057236 155.083435,132.895706 
	C158.762329,134.258301 159.429565,132.001785 159.939590,129.253632 
	C160.194077,128.801895 160.432526,128.641800 161.014801,128.780853 
	C167.556320,129.370773 170.685287,127.209267 173.345642,120.905289 
	C174.591492,120.909485 175.496002,120.918411 176.796844,120.836243 
	C177.934967,120.408463 178.676712,120.071770 179.636810,119.464119 
	C189.239624,117.473160 198.624115,115.753159 208.130447,114.100105 
	C208.252289,114.167061 208.656464,114.170822 208.656464,114.170822 
	C208.656464,114.170822 209.011063,113.962067 209.323746,113.879059 
	C210.066483,113.804787 210.496552,113.813522 211.141006,113.976196 
	C211.984283,113.947441 212.613159,113.764740 213.617889,113.458092 
	C216.998566,112.901382 220.003372,112.468628 223.141678,112.291824 
	C223.847885,113.053230 224.420578,113.558670 224.993286,114.064110 
	C225.328445,113.391899 225.663589,112.719688 226.428070,111.985893 
	C229.889954,111.142677 233.975128,113.905235 235.857651,109.251297 
	C236.937119,110.110893 238.016586,110.970497 239.990097,112.542046 
	C236.349945,114.235565 233.546921,115.539619 230.275528,116.615425 
	C229.223755,116.623856 228.640335,116.860542 228.056931,117.097229 
	C228.056931,117.097229 228.043625,117.031982 227.882233,117.143959 
	C227.469818,117.413025 227.235001,117.591423 227.016373,117.791138 
	C217.031158,120.241486 207.045959,122.691841 196.585968,124.991478 
	C195.953339,124.416008 195.795456,123.991257 195.637589,123.566505 
	C195.391541,123.845627 195.145493,124.124741 194.899445,124.403862 
	C195.358063,124.705292 195.816681,125.006714 196.275284,125.308136 
	C189.359161,129.069809 182.443054,132.831482 175.067108,136.967438 
	C174.397934,137.605362 174.188599,137.869003 173.979248,138.132629 
	C171.452042,141.829315 168.924835,145.526016 166.110504,149.757690 
	C161.386169,154.409607 163.774307,158.095184 166.782242,161.443466 
	C169.114883,164.040024 170.841797,166.630966 170.001801,170.617310 
	C167.978195,173.645203 165.956482,176.334442 163.637451,179.164856 
	C162.436127,180.265884 161.532135,181.225723 160.628143,182.185577 
	C152.686569,182.191116 144.666138,179.820297 136.381378,182.665771 
	C134.833420,181.793655 133.156677,180.487778 132.741959,180.809387 
	C131.537949,181.743057 128.594131,182.966476 131.935944,184.981735 
	C129.606903,186.679153 127.277863,188.376587 124.155823,190.078018 
	C121.850136,190.064194 120.337456,190.046356 118.418884,190.066010 
	C115.074249,190.445908 112.135513,190.788330 109.080620,190.828827 
	C107.583702,189.545731 106.202934,188.564545 104.827919,187.206421 
	C104.226921,185.885788 103.620171,184.942078 102.759155,184.211151 
	C101.010452,186.303802 99.516014,188.183716 98.015823,190.033936 
	C98.010063,190.004272 98.066444,190.026062 97.701576,190.052017 
	C95.571747,191.445648 93.806778,192.813324 91.922287,194.449600 
	C91.453712,195.190994 91.104668,195.663788 90.398315,196.087982 
	C88.196243,197.526550 86.351479,199.013687 84.201187,200.560059 
	C83.303490,200.807831 82.711334,200.996368 81.914497,200.950775 
	C80.815239,200.084610 79.920662,199.452576 79.026077,198.820541 
	C78.808151,199.067215 78.590225,199.313904 78.372299,199.560593 
	C78.916351,200.707916 79.460411,201.855255 79.840935,203.287369 
	C78.539505,205.092270 77.401611,206.612396 76.263718,208.132523 
	C76.635025,208.431763 77.006332,208.731003 77.377640,209.030258 
	C80.005859,206.444870 82.634071,203.859482 85.558159,201.127319 
	C87.739357,199.908661 89.624680,198.836777 91.765579,198.019775 
	C94.049171,200.732742 96.077179,203.190842 98.223236,206.005920 
	C99.664101,206.872208 100.986908,207.381531 102.606880,207.997040 
	C104.227898,208.680435 105.551750,209.257645 107.090683,210.097839 
	C107.903564,211.296616 108.501373,212.232391 109.099182,213.168167 
	C107.626663,215.070236 106.154152,216.972305 104.135910,218.885437 
	C103.092911,219.684372 102.595642,220.472244 102.098373,221.260117 
	C100.093338,223.613602 97.898071,225.573807 94.284042,224.473175 
	C97.269066,220.110062 100.426193,216.230499 103.583328,212.350922 
	C102.996017,211.801498 102.408714,211.252060 101.821411,210.702621 
	C98.530067,214.473373 95.238731,218.244110 91.777863,222.247284 
	C91.405403,223.015793 91.202454,223.551865 90.999512,224.087921 
	C87.594513,221.920410 83.955345,220.041092 80.843590,217.512711 
	C76.923500,214.327530 73.796127,210.593811 71.948326,205.498291 
	C70.585823,201.741028 70.713959,199.402222 73.384323,196.630646 
	C77.180840,192.690186 80.457741,188.226288 84.429665,184.488678 
	C86.057312,182.957047 88.950417,182.814453 91.209633,181.896667 
	C93.265945,181.061295 95.243401,180.031799 97.805664,179.272964 
	C99.297264,179.674286 100.238800,179.890549 101.180344,180.106812 
	C100.443710,179.401550 99.707069,178.696304 98.970428,177.991043 
M135.578568,147.175400 
	C135.727921,147.453644 135.877289,147.731903 136.733139,147.853821 
	C138.816376,146.668793 141.014969,145.635864 142.907883,144.199951 
	C143.430954,143.803146 143.044113,142.206848 143.074783,141.160904 
	C142.064499,141.283249 140.663956,141.030746 140.118042,141.599106 
	C138.558853,143.222443 137.347031,145.179428 135.578568,147.175400 
M117.628754,168.403244 
	C123.209656,162.046204 128.790558,155.689178 134.371460,149.332153 
	C133.904556,148.923950 133.437637,148.515762 132.970734,148.107559 
	C127.488525,154.349182 122.006325,160.590805 116.118477,166.626190 
	C115.511673,166.743332 114.904869,166.860458 114.298073,166.977600 
	C115.244255,167.585648 116.190437,168.193695 117.628754,168.403244 
M110.473976,165.501556 
	C110.473976,165.501556 110.513123,165.487961 110.473976,165.501556 
z"/>
<path fill="#1C1C1C" opacity="1.000000" stroke="none" 
	d="
M248.380219,209.873856 
	C251.351700,210.273529 254.646317,209.982925 257.237183,211.195724 
	C267.005951,215.768448 276.876312,220.284134 286.082550,225.855621 
	C296.166138,231.958099 305.490662,239.303238 315.276489,245.913651 
	C320.774170,249.627335 326.216370,253.686966 332.243225,256.299683 
	C345.652405,262.112671 344.660675,275.843964 335.698364,284.312103 
	C333.180664,286.691010 330.329285,288.867706 327.292969,290.513702 
	C321.832275,293.473969 317.642609,291.675110 313.361755,287.349854 
	C308.495392,282.433014 302.943604,278.022644 297.132660,274.250366 
	C286.823700,267.558197 275.777802,261.978027 265.633087,255.062836 
	C256.189148,248.625336 247.476562,241.105698 238.554626,233.922577 
	C237.364975,232.964767 236.837357,231.184692 236.359970,229.508362 
	C245.097290,229.734024 249.935898,225.592148 251.169159,216.732300 
	C250.228729,214.637436 249.125565,212.809570 248.104767,210.702469 
	C248.251511,210.240082 248.315872,210.056961 248.380219,209.873856 
z"/>
<path fill="#2B2B2B" opacity="1.000000" stroke="none" 
	d="
M229.790100,224.042068 
	C223.077042,219.927948 216.301178,215.912201 209.665588,211.676712 
	C199.636230,205.274979 189.688583,198.744431 179.750381,192.201538 
	C178.404892,191.315720 177.315247,190.041245 176.246033,188.426682 
	C176.988831,187.361984 177.592758,186.817337 178.537643,186.194000 
	C181.224365,182.750519 183.570129,179.385712 186.244553,175.892303 
	C188.698288,176.265488 191.131485,176.264694 192.899597,177.348709 
	C206.847122,185.899887 220.716843,194.581528 234.486511,203.416275 
	C237.294601,205.217957 239.579819,207.834579 242.090210,210.344757 
	C242.088760,210.793365 242.103165,210.972748 242.067200,211.521790 
	C241.089294,219.109421 234.853592,220.985962 229.790100,224.042068 
z"/>
<path fill="#F4F4F4" opacity="1.000000" stroke="none" 
	d="
M176.400497,120.927338 
	C175.496002,120.918411 174.591492,120.909485 173.133698,120.752243 
	C172.419647,120.536621 172.258881,120.469299 172.089462,120.067703 
	C169.835129,115.895607 167.684433,111.996735 165.281647,108.259949 
	C164.623764,107.236809 163.209946,106.699745 162.143021,105.939621 
	C167.670532,101.417084 174.052795,99.235344 181.561768,99.371269 
	C181.952606,100.144661 181.927673,100.547333 181.602905,100.949364 
	C180.368164,101.090370 179.433273,101.232018 178.498367,101.373657 
	C178.567612,101.807785 178.636841,102.241913 178.706070,102.676041 
	C179.801819,102.455833 180.897552,102.235626 182.400620,102.008133 
	C186.075348,101.240410 189.342758,100.479980 193.699142,99.466103 
	C191.354919,98.331459 190.184433,97.764938 189.013962,97.198410 
	C198.121765,95.320808 207.188232,93.177063 216.366272,91.751671 
	C218.677124,91.392784 221.345184,93.333969 223.732208,94.724937 
	C222.412750,95.231735 221.210175,95.231735 220.122421,95.231735 
	C221.059189,96.762032 222.019028,98.330025 222.669434,100.045425 
	C220.900269,100.832771 219.440521,101.472710 217.552765,102.072296 
	C205.474091,103.837044 193.823441,105.642143 182.172806,107.447250 
	C182.286819,108.340889 182.400848,109.234528 182.514877,110.128166 
	C194.600983,108.616676 206.687088,107.105186 218.839340,105.519028 
	C218.905487,105.444351 218.998215,105.532112 218.998215,105.532112 
	C218.998215,105.532112 218.722275,105.637108 218.611938,105.203354 
	C218.625809,104.498322 218.750046,104.227036 219.245773,103.981537 
	C221.762741,102.689651 223.908234,101.371971 226.029221,100.034454 
	C226.004730,100.014626 225.984924,100.074448 226.386948,100.106178 
	C227.003784,99.976242 227.218597,99.814575 227.433411,99.652908 
	C227.508194,99.973885 227.568497,100.571503 227.659805,100.576279 
	C232.925278,100.851715 233.339935,105.531502 235.542297,109.058044 
	C233.975128,113.905235 229.889954,111.142677 226.056915,111.923141 
	C224.507004,111.959930 223.757599,111.997902 223.008179,112.035873 
	C220.003372,112.468628 216.998566,112.901382 213.223251,113.421494 
	C211.944031,113.613312 211.435318,113.717781 210.926605,113.822250 
	C210.496552,113.813522 210.066483,113.804787 209.070465,113.859573 
	C208.339218,113.959785 208.173904,113.996468 208.008606,114.033157 
	C198.624115,115.753159 189.239624,117.473160 179.198151,119.369385 
	C177.827606,120.006187 177.114059,120.466766 176.400497,120.927338 
M173.324326,103.933075 
	C173.913437,103.705132 174.502548,103.477196 175.091660,103.249252 
	C174.917267,102.974556 174.742874,102.699860 174.568481,102.425163 
	C174.018036,102.898109 173.467590,103.371056 173.324326,103.933075 
M210.234970,95.929466 
	C209.874069,95.926071 209.512665,95.914894 209.153381,95.937325 
	C209.130203,95.938782 209.123215,96.199486 209.108688,96.339584 
	C209.474533,96.318909 209.840363,96.298233 210.234970,95.929466 
M168.101151,104.925079 
	C168.171127,104.924835 168.241104,104.924583 168.101151,104.925079 
z"/>
<path fill="#464646" opacity="1.000000" stroke="none" 
	d="
M242.106064,210.075531 
	C239.579819,207.834579 237.294601,205.217957 234.486511,203.416275 
	C220.716843,194.581528 206.847122,185.899887 192.899597,177.348709 
	C191.131485,176.264694 188.698288,176.265488 185.899597,175.848572 
	C182.073090,173.636673 178.920181,171.339920 175.652100,168.735336 
	C174.700912,168.260208 173.864899,168.092926 172.926666,167.628922 
	C171.884201,168.314346 170.943954,169.296494 170.003693,170.278656 
	C170.841797,166.630966 169.114883,164.040024 166.782242,161.443466 
	C163.774307,158.095184 161.386169,154.409607 166.143738,150.116516 
	C167.066620,150.175385 167.845322,150.245102 168.244675,150.670715 
	C172.591995,155.303894 176.395996,160.595840 181.295639,164.527390 
	C188.937531,170.659424 197.257446,175.958878 205.387604,181.467178 
	C218.753036,190.522461 232.196579,199.462479 245.705658,208.835327 
	C245.804108,209.219543 245.585342,209.463547 245.290100,209.385666 
	C244.031921,209.563705 243.068985,209.819626 242.106064,210.075531 
z"/>
<path fill="#EDEDED" opacity="1.000000" stroke="none" 
	d="
M154.821060,132.680115 
	C152.764481,134.057236 150.707916,135.434357 148.627747,137.175430 
	C148.604126,137.539383 148.559372,137.632919 148.559372,137.632919 
	C148.108490,136.129471 147.003571,134.470520 147.317780,133.148972 
	C148.832214,126.779274 146.271881,122.462120 140.827942,118.937103 
	C143.785782,116.680656 146.999298,114.696617 150.691132,112.873444 
	C153.155685,113.399925 155.917236,113.073662 156.979416,114.263924 
	C159.895813,117.531952 162.098709,121.436707 164.417908,125.383713 
	C163.077316,126.641022 161.902832,127.604088 160.728333,128.567154 
	C160.432526,128.641800 160.194077,128.801895 159.610626,129.359985 
	C157.745880,130.675049 156.283463,131.677582 154.821060,132.680115 
z"/>
<path fill="#CBCBCB" opacity="1.000000" stroke="none" 
	d="
M229.859436,224.383209 
	C234.853592,220.985962 241.089294,219.109421 242.375244,211.634293 
	C245.491257,213.251190 248.248840,215.125244 251.006424,216.999313 
	C249.935898,225.592148 245.097290,229.734024 236.350494,229.151169 
	C233.965714,227.622116 231.947235,226.173218 229.859436,224.383209 
z"/>
<path fill="#A9A9A9" opacity="1.000000" stroke="none" 
	d="
M164.583984,125.089470 
	C162.098709,121.436707 159.895813,117.531952 156.979416,114.263924 
	C155.917236,113.073662 153.155685,113.399925 151.038300,112.743149 
	C153.188736,111.576996 155.572006,110.894363 157.716705,109.760475 
	C159.186646,108.983337 160.324646,107.578346 161.877014,106.196823 
	C163.209946,106.699745 164.623764,107.236809 165.281647,108.259949 
	C167.684433,111.996735 169.835129,115.895607 171.969391,120.425262 
	C169.433319,122.441223 167.008652,123.765343 164.583984,125.089470 
z"/>
<path fill="#7D7D7D" opacity="1.000000" stroke="none" 
	d="
M109.391975,212.995651 
	C108.501373,212.232391 107.903564,211.296616 107.236992,209.772110 
	C109.374779,202.682343 112.246643,196.616882 117.854492,192.237778 
	C118.412636,191.801926 118.512314,190.778976 118.824776,190.028503 
	C120.337456,190.046356 121.850136,190.064194 123.815292,190.120895 
	C116.518799,194.103317 116.305122,202.895370 112.081757,209.107864 
	C111.253418,210.326340 110.482285,211.583694 109.391975,212.995651 
z"/>
<path fill="#8E8E8E" opacity="1.000000" stroke="none" 
	d="
M178.196686,186.272690 
	C177.592758,186.817337 176.988831,187.361984 176.152924,188.111816 
	C170.892654,186.504044 165.864395,184.691101 160.732147,182.531860 
	C161.532135,181.225723 162.436127,180.265884 163.998779,179.228165 
	C166.419830,179.515335 168.182266,179.880402 170.155197,180.503510 
	C170.553207,180.877930 170.740707,180.994324 171.134613,181.378387 
	C173.626266,183.188278 175.911469,184.730484 178.196686,186.272690 
z"/>
<path fill="#E2E2E2" opacity="1.000000" stroke="none" 
	d="
M188.625824,97.185730 
	C190.184433,97.764938 191.354919,98.331459 193.699142,99.466103 
	C189.342758,100.479980 186.075348,101.240410 182.379883,101.741547 
	C181.935471,101.304832 181.919113,101.127419 181.902740,100.949997 
	C181.927673,100.547333 181.952606,100.144661 181.980728,99.439430 
	C184.068512,98.482262 186.153091,97.827652 188.625824,97.185730 
z"/>
<path fill="#A9A9A9" opacity="1.000000" stroke="none" 
	d="
M91.947395,222.014862 
	C95.238731,218.244110 98.530067,214.473373 101.821411,210.702621 
	C102.408714,211.252060 102.996017,211.801498 103.583328,212.350922 
	C100.426193,216.230499 97.269066,220.110062 93.950684,224.329819 
	C93.327286,224.750595 92.865128,224.831177 92.142944,224.281570 
	C91.904411,223.105881 91.925903,222.560379 91.947395,222.014862 
z"/>
<path fill="#E2E2E2" opacity="1.000000" stroke="none" 
	d="
M222.978867,99.898010 
	C222.019028,98.330025 221.059189,96.762032 220.122421,95.231735 
	C221.210175,95.231735 222.412750,95.231735 223.832092,95.067078 
	C225.271378,96.323402 226.493866,97.744385 227.311096,99.212387 
	C226.598862,99.531082 226.291901,99.802765 225.984924,100.074448 
	C225.984924,100.074448 226.004730,100.014626 225.737213,99.726196 
	C224.639404,99.591179 223.809143,99.744598 222.978867,99.898010 
z"/>
<path fill="#999999" opacity="1.000000" stroke="none" 
	d="
M132.206055,184.798431 
	C128.594131,182.966476 131.537949,181.743057 132.741959,180.809387 
	C133.156677,180.487778 134.833420,181.793655 135.966858,182.673645 
	C134.825424,183.532532 133.650787,184.073837 132.206055,184.798431 
z"/>
<path fill="#999999" opacity="1.000000" stroke="none" 
	d="
M98.754486,178.092102 
	C99.707069,178.696304 100.443710,179.401550 101.180344,180.106812 
	C100.238800,179.890549 99.297264,179.674286 98.167740,179.204468 
	C98.084366,178.638092 98.270622,178.385513 98.754486,178.092102 
z"/>
<path fill="#999999" opacity="1.000000" stroke="none" 
	d="
M102.365265,221.126007 
	C102.595642,220.472244 103.092911,219.684372 103.826385,219.014038 
	C103.585777,219.751694 103.108963,220.371796 102.365265,221.126007 
z"/>
<path fill="#464646" opacity="1.000000" stroke="none" 
	d="
M248.136292,209.657227 
	C248.315872,210.056961 248.251511,210.240082 247.819427,210.628677 
	C246.829575,210.377274 246.207458,209.920410 245.585342,209.463547 
	C245.585342,209.463547 245.804108,209.219543 245.913528,209.097565 
	C246.646088,209.130585 247.269241,209.285583 248.136292,209.657227 
z"/>
<path fill="#999999" opacity="1.000000" stroke="none" 
	d="
M228.388474,117.070694 
	C228.640335,116.860542 229.223755,116.623856 229.904022,116.596214 
	C229.573929,116.884895 229.146973,116.964531 228.388474,117.070694 
z"/>
<path fill="#999999" opacity="1.000000" stroke="none" 
	d="
M91.777878,222.247299 
	C91.925903,222.560379 91.904411,223.105881 91.865738,224.060776 
	C91.680801,224.464767 91.513031,224.459396 91.172394,224.270966 
	C91.202454,223.551865 91.405403,223.015793 91.777878,222.247299 
z"/>
<path fill="#999999" opacity="1.000000" stroke="none" 
	d="
M174.273315,138.099945 
	C174.188599,137.869003 174.397934,137.605362 174.790695,137.167786 
	C174.838547,137.351669 174.702972,137.709473 174.273315,138.099945 
z"/>
<path fill="#999999" opacity="1.000000" stroke="none" 
	d="
M227.273621,117.832367 
	C227.235001,117.591423 227.469818,117.413025 227.915115,117.149155 
	C227.916550,117.319443 227.723724,117.596527 227.273621,117.832367 
z"/>
<path fill="#7D7D7D" opacity="1.000000" stroke="none" 
	d="
M226.386948,100.106178 
	C226.291901,99.802765 226.598862,99.531082 227.177734,99.518890 
	C227.449661,99.778389 227.376450,99.724220 227.404938,99.688568 
	C227.218597,99.814575 227.003784,99.976242 226.386948,100.106178 
z"/>
<path fill="#DDDDDD" opacity="1.000000" stroke="none" 
	d="
M178.537643,186.194000 
	C175.911469,184.730484 173.626266,183.188278 171.254517,181.116837 
	C170.778030,179.725677 170.388107,178.863754 169.972687,177.728409 
	C169.605957,176.965256 169.264709,176.475510 168.923462,175.985764 
	C168.802841,176.094559 168.571579,176.292297 168.577347,176.299484 
	C169.040283,176.875397 169.521744,177.436417 169.995941,178.282318 
	C169.974945,179.125885 169.959808,179.685684 169.944672,180.245468 
	C168.182266,179.880402 166.419830,179.515335 164.296082,179.086975 
	C165.956482,176.334442 167.978195,173.645203 170.001801,170.617310 
	C170.943954,169.296494 171.884201,168.314346 172.978134,167.892410 
	C174.010300,168.649490 174.888779,168.846329 175.767273,169.043182 
	C178.920181,171.339920 182.073090,173.636673 185.570953,175.977173 
	C183.570129,179.385712 181.224365,182.750519 178.537643,186.194000 
M172.504501,171.450043 
	C172.504501,171.450043 172.532227,171.511078 172.504501,171.450043 
z"/>
<path fill="#545454" opacity="1.000000" stroke="none" 
	d="
M90.755623,196.136566 
	C91.104668,195.663788 91.453712,195.190994 92.248230,194.334808 
	C94.484619,192.642944 96.275528,191.334503 98.066444,190.026062 
	C98.066444,190.026062 98.010063,190.004272 98.313797,189.897247 
	C100.066437,188.815231 101.515343,187.840210 103.281372,186.963745 
	C104.006393,187.235977 104.414284,187.409653 104.822174,187.583344 
	C106.202934,188.564545 107.583702,189.545731 108.990005,191.171417 
	C106.050179,196.547211 103.084808,201.278534 99.776924,205.998901 
	C98.991333,205.874954 98.548264,205.761948 98.105194,205.648941 
	C96.077179,203.190842 94.049171,200.732742 91.654190,197.823700 
	C91.110023,196.960709 90.932823,196.548630 90.755623,196.136566 
z"/>
<path fill="#D6D6D6" opacity="1.000000" stroke="none" 
	d="
M100.119446,206.009842 
	C103.084808,201.278534 106.050179,196.547211 109.106155,191.473328 
	C112.135513,190.788330 115.074249,190.445908 118.418884,190.065994 
	C118.512314,190.778976 118.412636,191.801926 117.854492,192.237778 
	C112.246643,196.616882 109.374779,202.682343 107.021912,209.509125 
	C105.551750,209.257645 104.227898,208.680435 102.448608,207.749023 
	C101.368591,206.933136 100.744019,206.471497 100.119446,206.009842 
z"/>
<path fill="#545454" opacity="1.000000" stroke="none" 
	d="
M116.524124,166.832443 
	C122.006325,160.590805 127.488525,154.349182 132.970734,148.107559 
	C133.437637,148.515762 133.904556,148.923950 134.371460,149.332153 
	C128.790558,155.689178 123.209656,162.046204 117.310226,168.266205 
	C116.835838,167.696930 116.679985,167.264694 116.524124,166.832443 
z"/>
<path fill="#999999" opacity="1.000000" stroke="none" 
	d="
M164.417908,125.383713 
	C167.008652,123.765343 169.433319,122.441223 171.978058,120.759544 
	C172.258881,120.469299 172.419647,120.536621 172.792358,120.756973 
	C170.685287,127.209267 167.556320,129.370773 161.014801,128.780853 
	C161.902832,127.604088 163.077316,126.641022 164.417908,125.383713 
z"/>
<path fill="#999999" opacity="1.000000" stroke="none" 
	d="
M135.998581,147.005173 
	C137.347031,145.179428 138.558853,143.222443 140.118042,141.599106 
	C140.663956,141.030746 142.064499,141.283249 143.074768,141.160904 
	C143.044113,142.206848 143.430954,143.803146 142.907883,144.199951 
	C141.014969,145.635864 138.816376,146.668793 136.383316,147.680450 
	C136.021851,147.339783 136.010223,147.172485 135.998581,147.005173 
z"/>
<path fill="#CBCBCB" opacity="1.000000" stroke="none" 
	d="
M85.262283,201.274094 
	C82.634071,203.859482 80.005859,206.444870 77.377640,209.030258 
	C77.006332,208.731003 76.635025,208.431763 76.263718,208.132523 
	C77.401611,206.612396 78.539505,205.092270 80.060005,203.114349 
	C81.001465,202.166000 81.560318,201.675461 82.119171,201.184906 
	C82.711334,200.996368 83.303490,200.807831 84.386513,200.759628 
	C85.005676,201.024689 85.133987,201.149399 85.262283,201.274094 
z"/>
<path fill="#CBCBCB" opacity="1.000000" stroke="none" 
	d="
M90.398315,196.087982 
	C90.932823,196.548630 91.110023,196.960709 91.398605,197.568832 
	C89.624680,198.836777 87.739357,199.908661 85.558167,201.127319 
	C85.133987,201.149399 85.005676,201.024689 84.692047,200.700394 
	C86.351479,199.013687 88.196243,197.526550 90.398315,196.087982 
z"/>
<path fill="#A9A9A9" opacity="1.000000" stroke="none" 
	d="
M102.964249,186.865204 
	C101.515343,187.840210 100.066437,188.815231 98.319557,189.926926 
	C99.516014,188.183716 101.010452,186.303802 102.760590,184.569702 
	C102.998940,185.432068 102.981598,186.148636 102.964249,186.865204 
z"/>
<path fill="#999999" opacity="1.000000" stroke="none" 
	d="
M155.083435,132.895706 
	C156.283463,131.677582 157.745880,130.675049 159.537247,129.566162 
	C159.429565,132.001785 158.762329,134.258301 155.083435,132.895706 
z"/>
<path fill="#999999" opacity="1.000000" stroke="none" 
	d="
M148.653625,137.523911 
	C149.775223,138.428741 150.847321,139.349060 151.919434,140.269363 
	C151.397812,140.678558 150.876175,141.087738 150.354553,141.496933 
	C149.818604,140.463882 149.282669,139.430817 148.653046,138.015335 
	C148.559372,137.632919 148.604126,137.539383 148.653625,137.523911 
z"/>
<path fill="#A9A9A9" opacity="1.000000" stroke="none" 
	d="
M97.701576,190.052017 
	C96.275528,191.334503 94.484619,192.642944 92.367767,194.066193 
	C93.806778,192.813324 95.571747,191.445648 97.701576,190.052017 
z"/>
<path fill="#999999" opacity="1.000000" stroke="none" 
	d="
M81.914497,200.950775 
	C81.560318,201.675461 81.001465,202.166000 80.223541,202.829559 
	C79.460411,201.855255 78.916351,200.707916 78.372299,199.560593 
	C78.590225,199.313904 78.808151,199.067215 79.026077,198.820541 
	C79.920662,199.452576 80.815239,200.084610 81.914497,200.950775 
z"/>
<path fill="#999999" opacity="1.000000" stroke="none" 
	d="
M116.321304,166.729309 
	C116.679985,167.264694 116.835838,167.696930 117.064163,168.465454 
	C116.190437,168.193695 115.244255,167.585648 114.298073,166.977600 
	C114.904869,166.860458 115.511673,166.743332 116.321304,166.729309 
z"/>
<path fill="#999999" opacity="1.000000" stroke="none" 
	d="
M99.776924,205.998901 
	C100.744019,206.471497 101.368591,206.933136 102.151443,207.642822 
	C100.986908,207.381531 99.664101,206.872208 98.223236,206.005920 
	C98.548264,205.761948 98.991333,205.874954 99.776924,205.998901 
z"/>
<path fill="#999999" opacity="1.000000" stroke="none" 
	d="
M223.141678,112.291832 
	C223.757599,111.997902 224.507004,111.959930 225.627579,111.984718 
	C225.663589,112.719688 225.328445,113.391899 224.993286,114.064110 
	C224.420578,113.558670 223.847885,113.053230 223.141678,112.291832 
z"/>
<path fill="#999999" opacity="1.000000" stroke="none" 
	d="
M103.281372,186.963745 
	C102.981598,186.148636 102.998940,185.432068 103.014854,184.356934 
	C103.620171,184.942078 104.226921,185.885788 104.827927,187.206406 
	C104.414284,187.409653 104.006393,187.235977 103.281372,186.963745 
z"/>
<path fill="#999999" opacity="1.000000" stroke="none" 
	d="
M196.210480,125.219810 
	C195.816681,125.006714 195.358063,124.705292 194.899445,124.403862 
	C195.145493,124.124741 195.391541,123.845627 195.637589,123.566505 
	C195.795456,123.991257 195.953339,124.416008 196.213150,125.055656 
	C196.315094,125.270546 196.145691,125.131485 196.210480,125.219810 
z"/>
<path fill="#999999" opacity="1.000000" stroke="none" 
	d="
M176.796844,120.836250 
	C177.114059,120.466766 177.827606,120.006187 178.979813,119.640343 
	C178.676712,120.071770 177.934967,120.408463 176.796844,120.836250 
z"/>
<path fill="#999999" opacity="1.000000" stroke="none" 
	d="
M211.141006,113.976196 
	C211.435318,113.717781 211.944031,113.613312 212.847382,113.545441 
	C212.613159,113.764740 211.984283,113.947441 211.141006,113.976196 
z"/>
<path fill="#999999" opacity="1.000000" stroke="none" 
	d="
M110.493546,165.494751 
	C110.513123,165.487961 110.473976,165.501556 110.493546,165.494751 
z"/>
<path fill="#545454" opacity="1.000000" stroke="none" 
	d="
M135.788574,147.090286 
	C136.010223,147.172485 136.021851,147.339783 136.030060,147.758606 
	C135.877289,147.731903 135.727921,147.453644 135.788574,147.090286 
z"/>
<path fill="#999999" opacity="1.000000" stroke="none" 
	d="
M208.130447,114.100113 
	C208.173904,113.996468 208.339218,113.959785 208.757782,113.942581 
	C209.011063,113.962067 208.656464,114.170822 208.656464,114.170822 
	C208.656464,114.170822 208.252289,114.167061 208.130447,114.100113 
z"/>
<path fill="#686868" opacity="1.000000" stroke="none" 
	d="
M245.290100,209.385666 
	C246.207458,209.920410 246.829575,210.377274 247.737045,210.907928 
	C249.125565,212.809570 250.228729,214.637436 251.169159,216.732300 
	C248.248840,215.125244 245.491257,213.251190 242.425629,211.264648 
	C242.103165,210.972748 242.088760,210.793365 242.090210,210.344757 
	C243.068985,209.819626 244.031921,209.563705 245.290100,209.385666 
z"/>
<path fill="#686868" opacity="1.000000" stroke="none" 
	d="
M218.874283,103.955750 
	C218.750046,104.227036 218.625809,104.498322 218.652069,105.180771 
	C218.802567,105.591927 218.773193,105.593704 218.773193,105.593704 
	C206.687088,107.105186 194.600983,108.616676 182.514877,110.128166 
	C182.400848,109.234528 182.286819,108.340889 182.172806,107.447250 
	C193.823441,105.642143 205.474091,103.837044 217.602722,102.329018 
	C218.345230,103.069313 218.609756,103.512527 218.874283,103.955750 
z"/>
<path fill="#7D7D7D" opacity="1.000000" stroke="none" 
	d="
M219.245773,103.981537 
	C218.609756,103.512527 218.345230,103.069313 218.030746,102.369370 
	C219.440521,101.472710 220.900269,100.832771 222.669434,100.045425 
	C223.809143,99.744598 224.639404,99.591179 225.761688,99.746025 
	C223.908234,101.371971 221.762741,102.689651 219.245773,103.981537 
z"/>
<path fill="#EDEDED" opacity="1.000000" stroke="none" 
	d="
M181.602905,100.949364 
	C181.919113,101.127419 181.935471,101.304832 181.972565,101.748840 
	C180.897552,102.235626 179.801819,102.455833 178.706070,102.676041 
	C178.636841,102.241913 178.567612,101.807785 178.498367,101.373657 
	C179.433273,101.232018 180.368164,101.090370 181.602905,100.949364 
z"/>
<path fill="#EDEDED" opacity="1.000000" stroke="none" 
	d="
M173.120728,103.888535 
	C173.467590,103.371056 174.018036,102.898109 174.568481,102.425163 
	C174.742874,102.699860 174.917267,102.974556 175.091660,103.249252 
	C174.502548,103.477196 173.913437,103.705132 173.120728,103.888535 
z"/>
<path fill="#E2E2E2" opacity="1.000000" stroke="none" 
	d="
M210.220581,96.103516 
	C209.840363,96.298233 209.474533,96.318909 209.108688,96.339584 
	C209.123215,96.199486 209.130203,95.938782 209.153381,95.937325 
	C209.512665,95.914894 209.874069,95.926071 210.220581,96.103516 
z"/>
<path fill="#EDEDED" opacity="1.000000" stroke="none" 
	d="
M168.206116,104.924706 
	C168.241104,104.924583 168.171127,104.924835 168.206116,104.924706 
z"/>
<path fill="#7D7D7D" opacity="1.000000" stroke="none" 
	d="
M218.839340,105.519028 
	C218.773193,105.593704 218.802567,105.591927 218.762421,105.614517 
	C218.722275,105.637108 218.998215,105.532112 218.998215,105.532112 
	C218.998215,105.532112 218.905487,105.444351 218.839340,105.519028 
z"/>
<path fill="#D6D6D6" opacity="1.000000" stroke="none" 
	d="
M175.652100,168.735336 
	C174.888779,168.846329 174.010300,168.649490 173.080353,168.189148 
	C173.864899,168.092926 174.700912,168.260208 175.652100,168.735336 
z"/>
<path fill="#D6D6D6" opacity="1.000000" stroke="none" 
	d="
M169.998169,178.001831 
	C170.388107,178.863754 170.778030,179.725677 171.048080,180.849152 
	C170.740707,180.994324 170.553207,180.877930 170.155182,180.503510 
	C169.959808,179.685684 169.974945,179.125885 169.995026,178.283051 
	C170.000000,178.000000 169.998169,178.001831 169.998169,178.001831 
z"/>
<path fill="#D6D6D6" opacity="1.000000" stroke="none" 
	d="
M170.000916,177.999268 
	C169.521744,177.436417 169.040283,176.875397 168.577347,176.299484 
	C168.571579,176.292297 168.802841,176.094559 168.923462,175.985764 
	C169.264709,176.475510 169.605957,176.965256 169.972687,177.728409 
	C169.998169,178.001831 170.000000,178.000000 170.000916,177.999268 
z"/>
<path fill="#D6D6D6" opacity="1.000000" stroke="none" 
	d="
M172.518372,171.480560 
	C172.532227,171.511078 172.504501,171.450043 172.518372,171.480560 
z"/>
</svg>